<?xml version="1.0" encoding="UTF-8" standalone="no"?>
<svg
   version="1.1"
   id="Layer_1"
   x="0"
   y="0"
   viewBox="0 0 22.299999 24.264249"
   xml:space="preserve"
   sodipodi:docname="google_fi_wireless.svg"
   width="22.299999"
   height="24.26425"
   inkscape:version="1.2 (dc2aedaf03, 2022-05-15)"
   xmlns:inkscape="http://www.inkscape.org/namespaces/inkscape"
   xmlns:sodipodi="http://sodipodi.sourceforge.net/DTD/sodipodi-0.dtd"
   xmlns="http://www.w3.org/2000/svg"
   xmlns:svg="http://www.w3.org/2000/svg"><defs
   id="defs25" /><sodipodi:namedview
   id="namedview23"
   pagecolor="#ffffff"
   bordercolor="#666666"
   borderopacity="1.0"
   inkscape:showpageshadow="2"
   inkscape:pageopacity="0.0"
   inkscape:pagecheckerboard="true"
   inkscape:deskcolor="#d1d1d1"
   showgrid="false"
   inkscape:zoom="15.851351"
   inkscape:cx="5.2046036"
   inkscape:cy="11.891731"
   inkscape:window-width="1620"
   inkscape:window-height="1010"
   inkscape:window-x="-6"
   inkscape:window-y="-6"
   inkscape:window-maximized="1"
   inkscape:current-layer="Layer_1" />
  <style
   id="style2">
    .st0{fill-rule:evenodd;clip-rule:evenodd;fill:#3c4043}
  </style>
  
  
  
  
  
  
  
  
  <g
   id="g326"
   transform="translate(1.4999996,1.6321247)"><circle
     cx="1.9"
     cy="19.1"
     r="1.9"
     style="fill:#ea4335"
     id="circle8" /><path
     d="M 11.4,6.3 H 2.2 C 1,6.3 0,7.3 0,8.5 c 0,1.2 1,2.2 2.2,2.2 h 9.1 c 1.2,0 2.2,-1 2.2,-2.2 0.1,-1.2 -0.9,-2.2 -2.1,-2.2 z"
     style="fill:#34a853"
     id="path10" /><circle
     cx="2.2"
     cy="8.5"
     style="fill:#137333"
     r="2.2"
     id="circle12" /><path
     d="M 6.4,12.1 H 2.1 C 1,12.1 0,13 0,14.1 c 0,1.1 0.9,2.1 2.1,2.1 h 4.3 c 1.1,0 2.1,-0.9 2.1,-2.1 -0.1,-1.1 -1,-2 -2.1,-2 z"
     style="fill:#fbbc04"
     id="path14" /><circle
     cx="6.4000001"
     cy="14.1"
     r="2.0999999"
     style="fill:#ea8600"
     id="circle16" /><path
     d="M 16.9,0 H 2.4 C 1.1,0 0,1.1 0,2.4 0,3.7 1.1,4.8 2.4,4.8 h 14.5 c 1.3,0 2.4,-1.1 2.4,-2.4 C 19.3,1.1 18.2,0 16.9,0 Z"
     style="fill:#4285f4"
     id="path18" /><circle
     cx="16.9"
     cy="2.4000001"
     r="2.4000001"
     style="fill:#185abc"
     id="circle20" /></g>
</svg>
