<svg version="1.1" id="Layer_1" xmlns:x="ns_extend;" xmlns:i="ns_ai;" xmlns:graph="ns_graphs;" xmlns="http://www.w3.org/2000/svg" xmlns:xlink="http://www.w3.org/1999/xlink" x="0px" y="0px" viewBox="0 0 600.35 88.05" style="enable-background:new 0 0 600.35 88.05;" xml:space="preserve">
 <style type="text/css">
  .st0{fill:#FFFFFF;}
 </style>
 <metadata>
  <sfw xmlns="ns_sfw;">
   <slices>
   </slices>
   <sliceSourceBounds bottomLeftOrigin="true" height="88.05" width="600.35" x="-276.15" y="126.24">
   </sliceSourceBounds>
  </sfw>
 </metadata>
 <g>
  <g>
   <path class="st0" d="M91.75,0c0.34,0,0.67,0,0.99,0l1.88,0c0.3,0,0.59,0,0.87,0l1.57,0c0.24,0,0.47,0,0.69,0l1.62,0
			c0.14,0,0.26,0,0.37,0l0.49,0l0.29,0.26v2.51c0,0.69-0.39,1.04-1.16,1.04C95.59,4,94.82,4.37,93.44,6.36
			c-0.75,1.08-2.24,3.41-3.78,6.03L76.44,37.11c0,0-0.13,0.27-0.37,0.77l16.16,33.08l0.98,0.27l25.46-60.42
			c0.89-2.44,0.75-4.16-0.39-5.18c-1.14-0.99-1.95-1.58-4.89-1.7l-2.39-0.12c-0.29,0-0.57-0.11-0.84-0.31
			c-0.26-0.19-0.4-0.43-0.4-0.73V0.26l0.36-0.26h28.76l0.29,0.26v2.52c0,0.68-0.39,1.03-1.16,1.03c-3.77,0.17-6.55,0.99-8.37,2.44
			c-1.81,1.47-3.23,3.49-4.24,6.13c0,0-7.65,17.51-15.69,35.82l-1.34,3.06c-5.6,12.76-11.21,25.47-14.39,32.52
			c-3.07,5.85-6.1,5.3-8.73-0.17c-2.06-4.24-5.5-11.66-9-19.31l-2.34-5.12c-1.37-3-2.7-5.95-3.93-8.64
			c-5.4,11.16-12.81,26.32-16.51,33.14c-3.58,6.2-6.5,5.4-8.86,0.16c-8.15-19.21-24.86-53.03-32.71-71.8
			c-1.46-3.48-2.55-5.7-3.59-6.6c-1.04-0.88-3.2-1.4-6.49-1.58C0.6,3.73,0,3.44,0,2.96V0.33l0.29-0.26c0.63,0,1.55-0.01,2.67-0.01
			l3.92,0c0.37,0,0.74,0,1.12,0l4.85,0c0.42,0,0.84,0,1.27,0l8.67,0c0.38,0,0.76,0,1.13,0l4.75,0c0.26,0,0.5,0,0.72,0l2.17,0
			l0.29,0.26v2.51c0,0.69-0.44,1.03-1.3,1.03L27.29,4c-2.8,0.12-4.2,0.96-4.2,2.51c0,0.72,0.29,1.9,0.94,3.48
			c6.25,15.26,27.92,61.04,27.9,60.88l0.79,0.21l13.94-27.82c-1.71-3.76-2.79-6.15-2.79-6.18l-9.59-18.84c0,0-1.86-3.77-2.49-5.02
			c-4.21-8.35-4.12-8.81-8.38-9.35c-1.19-0.16-1.81-0.31-1.81-0.9V0.32l0.36-0.26l2.56,0c0.31,0,0.63,0,0.95,0l7.44,0
			c0.37,0,0.74,0,1.1,0l12.75,0l0.66,0.22V2.9c0,0.6-0.43,0.91-1.3,0.91l-1.8,0.26c-4.55,0.35-3.8,2.21-0.78,8.23l9.2,18.81
			l10.17-20.29c1.59-3.47,1.39-4.51,0.79-5.33l-0.14-0.17c-0.4-0.48-1.76-1.26-4.7-1.37l-1.16-0.13c-0.29,0-0.57-0.1-0.83-0.3
			c-0.26-0.19-0.39-0.43-0.39-0.74V0.28l0.36-0.26c1.24-0.01,2.75-0.01,4.4-0.02L91.75,0z M144.1,26.6l0.59,0
			c3.55,0,13.66-0.26,13.66-0.26l0.13,0.26v2.89c0,0.39-0.26,0.66-0.79,0.66l-2.76,0.27c-4.07,0.39-5.5,1.45-5.52,4.08v43.73
			c0,2.89,1.31,4.6,5.52,4.99l2.76,0.27c0.39,0,0.79,0.26,0.79,0.78v2.76l-0.13,0.27c0,0-9.96-0.27-14.05-0.27
			c-3.68,0-13.91,0.27-13.92,0.27l-0.26-0.27v-2.76c0-0.53,0.39-0.78,0.92-0.78l2.63-0.27c4.33-0.39,5.65-2.5,5.65-4.99V34.49
			c0-2.88-1.58-3.68-5.65-4.07l-2.63-0.27c-0.53,0-0.92-0.12-0.92-0.53V26.6l0.13-0.26C130.25,26.34,139.7,26.58,144.1,26.6
			L144.1,26.6z M188.18,78.22c0,2.89,1.71,4.33,5.52,4.99l1.44,0.27c0.39,0.13,0.79,0.26,0.79,0.78v2.76l-0.13,0.27
			c0,0-8.25-0.27-12.21-0.27c-3.68,0-14.46,0.27-14.45,0.27l-0.26-0.27v-2.76c0-0.53,0.39-0.78,0.92-0.78l2.63-0.27
			c3.94-0.39,5.65-2.5,5.65-4.99V34.49c0-2.88-1.45-3.68-5.65-4.07l-2.63-0.27c-0.53,0-0.92-0.12-0.92-0.53V26.6l0.13-0.26
			c0,0,10.76,0.26,14.84,0.26c3.68,0,11.96-0.26,11.95-0.26l0.13,0.26v2.89c0,0.39-0.26,0.53-0.79,0.66l-1.44,0.27
			c-4.07,0.78-5.5,1.45-5.52,4.08v19.84c4.33,0,6.8-2.22,12.61-8.4c5.25-5.8,9.31-10.61,9.32-13.14c0-1.06-1.18-2.23-3.81-2.63
			c-0.53-0.12-0.79-0.26-0.79-0.66v-3.03l0.13-0.12c0,0,10.66,0.26,14.45,0.26c3.41,0,9.21-0.26,9.19-0.26l0.39,0.12v3.03
			c0,0.39-0.39,0.66-1.05,0.66c-5.1,0.39-8.66,0.66-13.39,6.04l-11.29,12.99c-2.23,2.38-3.02,3.81-3.02,4.86
			c0,0.79,0.53,1.44,1.18,2.23l19.83,23.9c1.58,1.83,4.73,2.63,7.35,3.15l0.66,0.13c0.39,0.13,0.92,0.39,0.92,0.78v2.76l-0.39,0.13
			c0,0-6.95-0.13-10.64-0.13c-3.28,0-8,0.13-8.01,0.13l-0.13-0.13v-1.58c0-1.71-0.13-3.15-1.97-5.25l-14.58-18.13
			c-1.97-2.63-4.07-3.28-6.96-3.28L188.18,78.22L188.18,78.22z M258.97,78.22c0,2.89,1.31,4.6,5.52,4.99l2.76,0.27
			c0.39,0,0.79,0.26,0.79,0.78v2.76l-0.13,0.27c0,0-9.96-0.27-14.05-0.27c-3.68,0-13.91,0.27-13.92,0.27l-0.26-0.27v-2.76
			c0-0.53,0.39-0.78,0.92-0.78l2.63-0.27c4.33-0.39,5.65-2.5,5.65-4.99V34.49c0-2.88-1.58-3.68-5.65-4.07l-2.63-0.27
			c-0.53,0-0.92-0.12-0.92-0.53V26.6l0.13-0.26c0,0,10.36,0.26,14.45,0.26c3.55,0,13.66-0.26,13.66-0.26l0.13,0.26v2.89
			c0,0.39-0.26,0.66-0.79,0.66l-2.76,0.27c-4.07,0.39-5.5,1.45-5.52,4.08L258.97,78.22L258.97,78.22z M287.35,34.75
			c0-4.07-1.71-4.2-7.88-4.6c-0.79,0-0.92-0.39-0.92-0.66v-3.02l0.26-0.13c1.97,0,9.71,0.26,13.53,0.26c3.68,0,8.91-0.26,13.79-0.26
			c18.66,0,22.06,9.21,22.05,16.03c0,7.9-3.81,20.21-22.45,20.22c-3.28,0-5.9-0.27-8.28-1.31v17.59c0,2.88,1.58,3.55,5.78,4.2
			l2.63,0.39c0.53,0.13,0.93,0.27,0.92,0.78V87l-0.12,0.27c0,0-10.51-0.27-14.58-0.27c-3.68,0-13.51,0.27-13.53,0.27L278.43,87
			v-2.76c0-0.53,0.26-0.66,0.79-0.78l2.76-0.39c4.07-0.53,5.4-1.71,5.38-4.2L287.35,34.75L287.35,34.75z M297.46,57.6
			c2.63,1.06,5.9,1.18,8.54,1.18c7.9,0,11.66-4.74,11.68-14.84c0-11.31-5.1-13.81-12.33-13.79c-6.3,0-7.9,1.18-7.88,4.6L297.46,57.6
			L297.46,57.6z M350.8,87.02c-3.94,0-13.01,0.27-13,0.27l-0.14-0.27v-2.89c0-0.26,0.14-0.65,0.79-0.65l3.03-0.27
			c4.08-0.39,5.25-3.02,5.26-5.64V34.23c0-3.03-1.58-3.55-5.26-3.81l-3.03-0.27c-0.79-0.12-0.79-0.39-0.79-0.53V26.6l0.14-0.26
			c0,0,10.26,0.26,14.18,0.26h19.3c3.94,0,13.26-0.26,13.27-0.26l0.27,0.26c0.12,5.65,1.04,10.76,1.97,15.76l-3.27,0.53
			c-1.44-4.86-3.93-11.81-12.34-11.82h-10.51c-2.5,0-3.81,0.92-3.81,3.15v19.05h9.84c3.68,0,4.6-1.58,5.13-4.2l0.78-2.76
			c0-0.39,0.27-0.66,0.79-0.66h2.22c0.27,0,0.27,0.14,0.27,0.39c-0.27,2.88-0.79,6.55-0.79,9.72c0,3.28,0.53,6.05,0.79,9.06
			l-0.27,0.27h-2.22c-0.65,0-0.93-0.27-0.93-0.66l-0.66-2.88c-0.53-2.63-1.71-4.08-5.14-4.08h-9.84v20.1c0,2.49,1.43,4.98,3.81,4.98
			h12.48c6.7,0,10.41-4.2,11.95-11.04l3.27,0.39l-2.63,15.1l-0.26,0.26c0,0-7.75-0.26-11.69-0.26L350.8,87.02L350.8,87.02z
			 M400.19,83.48l3.02-0.27c3.94-0.39,5.25-1.58,5.26-5.64V34.23c0-3.43-0.93-3.43-5.26-3.81l-2.88-0.27
			c-0.53,0-0.93-0.26-0.93-0.66V26.6l0.13-0.26c0,0,11.56,0.26,13.93,0.26c2.49,0,13.91-0.26,17.33-0.26
			c21.91,0,32.72,13.66,32.7,31.12c0,22.96-16.31,29.82-30.86,29.81c-10.51,0-15.11-0.27-19.17-0.27c-3.94,0-13.91,0.27-13.93,0.27
			L399.41,87v-2.76C399.4,83.87,399.67,83.48,400.19,83.48L400.19,83.48z M429.48,83.48c14.46,0,22.61-5.35,22.59-23.77
			c0-13.66-3.03-29.57-25.09-29.55c-5.1,0-8.4,0.79-8.4,4.08v43.34C418.58,81.24,419.49,83.47,429.48,83.48L429.48,83.48z
			 M494.49,78.22c0,2.89,1.31,4.6,5.52,4.99l2.76,0.27c0.39,0,0.79,0.26,0.79,0.78v2.76l-0.13,0.27c0,0-9.96-0.27-14.05-0.27
			c-3.68,0-13.91,0.27-13.92,0.27l-0.27-0.27v-2.76c0-0.53,0.39-0.78,0.92-0.78l2.63-0.27c4.33-0.39,5.65-2.5,5.65-4.99V34.49
			c0-2.88-1.58-3.68-5.65-4.07l-2.63-0.27c-0.53,0-0.92-0.12-0.92-0.53V26.6l0.13-0.26c0,0,10.36,0.26,14.44,0.26
			c3.54,0,13.66-0.26,13.66-0.26l0.12,0.26v2.89c0,0.39-0.27,0.66-0.79,0.66l-2.76,0.27c-4.08,0.39-5.5,1.45-5.52,4.08L494.49,78.22
			L494.49,78.22z M534.95,83.21l3.81,0.27c0.53,0,1.05,0.39,1.05,1.05v2.5l-0.26,0.27c0,0-14.31-0.27-17.47-0.27
			c-3.42,0-11.81,0.27-11.82,0.27l-0.27-0.27v-2.5c0-0.65,0.39-1.05,1.06-1.05c5.8-0.39,9.06-1.45,12.73-9.85l29.15-68.3
			c1.44-3.41,2.5-4.73,4.48-4.73c1.83,0,2.49,1.32,3.54,3.94l26.92,71.18c1.85,5.1,4.47,7.1,9.73,7.62l1.44,0.13
			c0.66,0,1.32,0.39,1.32,1.06V87l-0.39,0.27c0,0-10.11-0.27-15.24-0.27c-4.6,0-17.46,0.27-17.47,0.27L567.12,87v-2.49
			c0-0.67,0.26-1.06,0.93-1.06l3.68-0.27c4.98-0.39,6.85-1.98,5.52-5.64l-8.01-22.2h-27.33c-3.15,0-3.94,0.53-4.59,2.22l-7.62,19.05
			C528.39,79.92,530.09,82.82,534.95,83.21L534.95,83.21z M567.13,49.84l-12.74-35.06h-0.26l-13.13,33.36
			c-0.53,1.33,0.39,1.71,3.28,1.71L567.13,49.84L567.13,49.84L567.13,49.84z">
   </path>
  </g>
 </g>
</svg>