<svg version="1.1" id="Layer_1" xmlns="http://www.w3.org/2000/svg" xmlns:xlink="http://www.w3.org/1999/xlink" x="0px" y="0px" viewBox="0 0 110 90" style="enable-background:new 0 0 110 90;" xml:space="preserve">
 <style type="text/css">
  .st0{fill:#7F7F7F;}
 </style>
 <g>
  <path id="XMLID_588_" class="st0" d="M53,27.6c-2.6,0-4.7-2.1-4.7-4.8S50.4,18,53,18c2.6,0,4.7,2.1,4.7,4.8S55.6,27.6,53,27.6
		 M26.4,27.6c-2.6,0-4.7-2.1-4.7-4.8s2.1-4.8,4.7-4.8c2.6,0,4.7,2.1,4.7,4.8S29,27.6,26.4,27.6 M39.7,0C17.7,0-0.2,15-0.2,33.5
		c0,10.1,5.4,19.2,13.8,25.3c0.7,0.5,1.1,1.3,1.1,2.2c0,0.3-0.1,0.6-0.1,0.9c-0.7,2.5-1.7,6.6-1.8,6.8c-0.1,0.3-0.2,0.6-0.2,1
		c0,0.7,0.6,1.3,1.3,1.3c0.3,0,0.5-0.1,0.8-0.2l8.7-5.1c0.7-0.4,1.4-0.6,2.1-0.6c0.4,0,0.8,0.1,1.2,0.2c4.1,1.2,8.5,1.8,13,1.8
		c0.7,0,1.5,0,2.2-0.1c-0.9-2.6-1.3-5.4-1.3-8.2c0-16.9,16.3-30.6,36.4-30.6c0.7,0,0.9,0,1.6,0.1C75.6,12.2,59.6,0,39.7,0">
  </path>
  <path id="XMLID_567_" class="st0" d="M88,54c-2.3,0-4.2-1.9-4.2-4.2s1.9-4.2,4.2-4.2c2.3,0,4.2,1.9,4.2,4.2S90.3,54,88,54 M65.9,54
		c-2.3,0-4.2-1.9-4.2-4.2s1.9-4.2,4.2-4.2c2.3,0,4.2,1.9,4.2,4.2S68.2,54,65.9,54 M98.7,79.9c7-5.1,11.5-12.7,11.5-21.1
		c0-15.4-14.9-27.9-33.3-27.9c-18.4,0-33.3,12.5-33.3,27.9c0,15.4,14.9,27.9,33.3,27.9c3.8,0,7.5-0.5,10.9-1.5
		c0.3-0.1,0.6-0.1,1-0.1c0.6,0,1.2,0.2,1.8,0.5l7.3,4.2c0.2,0.1,0.4,0.2,0.6,0.2c0.6,0,1.1-0.5,1.1-1.1c0-0.3-0.1-0.6-0.2-0.8
		c0-0.2-0.9-3.5-1.5-5.6c-0.1-0.2-0.1-0.5-0.1-0.7C97.8,81,98.2,80.3,98.7,79.9">
  </path>
 </g>
</svg>