<svg version="1.1" id="Layer_1" xmlns="http://www.w3.org/2000/svg" xmlns:xlink="http://www.w3.org/1999/xlink" x="0px" y="0px" viewBox="0 0 180 180" style="enable-background:new 0 0 180 180;" xml:space="preserve">
 <style type="text/css">
  .st0{clip-path:url(#SVGID_2_);fill:url(#SVGID_3_);}
	.st1{clip-path:url(#SVGID_5_);fill:#FFFFFF;}
 </style>
 <g>
  <g>
   <defs>
    <path id="SVGID_1_" d="M36.9,0C16.6,0,0,16.6,0,36.9v106.2C0,163.4,16.6,180,36.9,180h106.2c20.2,0,36.7-16.4,36.9-36.6V36.6
				C179.8,16.4,163.3,0,143.1,0H36.9z">
    </path>
   </defs>
   <clipPath id="SVGID_2_">
    <use href="#SVGID_1_" style="overflow:visible;">
    </use>
   </clipPath>
   <linearGradient id="SVGID_3_" gradientUnits="userSpaceOnUse" x1="-588.9598" y1="277.3235" x2="-587.4479" y2="277.3235" gradientTransform="matrix(0 -118.7027 -118.7027 0 33009.0547 -69731.4531)">
    <stop offset="1.454327e-02" style="stop-color:#07C160">
    </stop>
    <stop offset="1" style="stop-color:#02E36F">
    </stop>
   </linearGradient>
   <rect x="0" y="0" class="st0" width="180" height="180">
   </rect>
  </g>
  <g>
   <defs>
    <rect id="SVGID_4_" y="0" width="180" height="180">
    </rect>
   </defs>
   <clipPath id="SVGID_5_">
    <use xlink:href="#SVGID_4_" style="overflow:visible;">
    </use>
   </clipPath>
   <path class="st1" d="M133.7,101.4c-3.2,0-5.9-2.6-5.9-5.9c0-3.2,2.6-5.9,5.9-5.9c3.2,0,5.9,2.6,5.9,5.9
			C139.5,98.8,136.9,101.4,133.7,101.4 M104.4,101.4c-3.2,0-5.9-2.6-5.9-5.9c0-3.2,2.6-5.9,5.9-5.9c3.2,0,5.9,2.6,5.9,5.9
			C110.2,98.8,107.6,101.4,104.4,101.4 M147.8,135c9.3-6.7,15.2-16.7,15.2-27.7c0-20.2-19.7-36.6-44-36.6s-44,16.4-44,36.6
			c0,20.2,19.7,36.6,44,36.6c5,0,9.9-0.7,14.4-2c0.4-0.1,0.8-0.2,1.3-0.2c0.8,0,1.6,0.3,2.3,0.7l9.6,5.6c0.3,0.2,0.5,0.3,0.8,0.3
			c0.8,0,1.5-0.7,1.5-1.5c0-0.4-0.1-0.7-0.2-1.1c-0.1-0.2-1.2-4.6-2-7.4c-0.1-0.3-0.2-0.6-0.2-0.9C146.6,136.4,147,135.5,147.8,135">
   </path>
   <path class="st1" d="M87.4,67.1c-3.9,0-7-3.1-7-7s3.1-7,7-7s7,3.1,7,7S91.2,67.1,87.4,67.1 M52.2,67.1c-3.9,0-7-3.1-7-7s3.1-7,7-7
			c3.9,0,7,3.1,7,7S56.1,67.1,52.2,67.1 M69.8,30.2c-29.1,0-52.8,19.7-52.8,44c0,13.2,7.1,25.2,18.2,33.2c0.9,0.6,1.5,1.7,1.5,2.9
			c0,0.4-0.1,0.7-0.2,1.1c-0.9,3.3-2.3,8.6-2.4,8.9c-0.1,0.4-0.3,0.8-0.3,1.3c0,1,0.8,1.8,1.8,1.8c0.4,0,0.7-0.1,1-0.3l11.5-6.7
			c0.9-0.5,1.8-0.8,2.8-0.8c0.5,0,1.1,0.1,1.6,0.2c5.4,1.5,11.2,2.4,17.2,2.4c1,0,1.9,0,2.9-0.1c-1.1-3.4-1.8-7-1.8-10.8
			c0-22.1,21.5-40.1,48.1-40.1c1,0,1.9,0,2.9,0.1C117.9,46.3,96.1,30.2,69.8,30.2">
   </path>
  </g>
 </g>
</svg>